<svg width="148" height="25" viewBox="0 0 148 25" fill="none" xmlns="http://www.w3.org/2000/svg">
<circle cx="12.5" cy="12.5" r="12" stroke="#F6F6F5"/>
<path d="M5.52057 16.9405C7.07708 17.0805 8.47962 16.6885 9.75619 15.7311C8.42084 15.6135 7.5278 14.9473 7.02949 13.6987C7.46621 13.7519 7.87494 13.7659 8.30886 13.6483C6.86992 13.2004 6.10286 12.2598 5.99928 10.7425C6.4304 10.944 6.83633 11.0896 7.31504 11.0952C6.4612 10.4541 6.02448 9.62266 6.04128 8.57566C6.04967 8.09415 6.17845 7.64063 6.4332 7.21231C8.01491 9.06277 9.99974 10.0874 12.4437 10.2581C12.4297 10.1518 12.4213 10.0678 12.4101 9.981C12.2085 8.43009 13.2163 7.01915 14.7561 6.7252C15.7219 6.54044 16.5757 6.79519 17.298 7.46147C17.41 7.56225 17.5052 7.58464 17.6451 7.54825C18.2078 7.40548 18.7425 7.19832 19.2604 6.91837C19.0617 7.57345 18.6529 8.06615 18.0986 8.48048C18.2246 8.45808 18.3534 8.44128 18.4794 8.41609C18.6109 8.38809 18.7425 8.3573 18.8741 8.32091C19.0001 8.28731 19.1233 8.24812 19.2464 8.20613C19.3724 8.16414 19.4984 8.11654 19.6468 8.09135C19.574 8.19213 19.504 8.29851 19.4256 8.39649C19.1009 8.80802 18.7257 9.16915 18.3142 9.49109C18.2722 9.52468 18.2358 9.59747 18.2386 9.64786C18.261 10.6417 18.121 11.6103 17.7991 12.5509C17.1664 14.4042 16.0634 15.9047 14.4089 16.9769C13.5915 17.506 12.6984 17.8531 11.7438 18.0547C10.7976 18.2535 9.84577 18.2898 8.89115 18.1779C7.93373 18.0659 7.02389 17.7831 6.16725 17.3408C5.9405 17.226 5.72214 17.0973 5.50098 16.9741C5.50938 16.9629 5.51497 16.9517 5.52057 16.9405Z" fill="#F6F6F5"/>
<circle cx="53.5" cy="12.5" r="12" stroke="#F6F6F5"/>
<path d="M53.7837 5.3336C49.9381 5.3336 47.999 8.10544 47.999 10.4168C47.999 11.8164 48.5261 13.0615 49.6566 13.5256C49.8419 13.6017 50.008 13.5279 50.0618 13.3219C50.0991 13.1791 50.1877 12.8188 50.2271 12.6689C50.2813 12.4648 50.2603 12.3932 50.1107 12.2153C49.7848 11.8287 49.5764 11.3283 49.5764 10.6196C49.5764 8.56314 51.1069 6.72228 53.5616 6.72228C55.7352 6.72228 56.9295 8.05747 56.9295 9.84064C56.9295 12.1869 55.8966 14.1671 54.3633 14.1671C53.5165 14.1671 52.8827 13.4631 53.0858 12.5997C53.3292 11.5688 53.8004 10.4563 53.8004 9.71218C53.8004 9.04615 53.4448 8.49059 52.7087 8.49059C51.8431 8.49059 51.1477 9.39086 51.1477 10.5968C51.1477 11.3649 51.4059 11.8844 51.4059 11.8844C51.4059 11.8844 50.5201 15.6577 50.3648 16.3185C50.0555 17.6345 50.3183 19.2478 50.3406 19.4107C50.3536 19.5073 50.477 19.5302 50.5329 19.4572C50.6127 19.3524 51.6438 18.0729 51.9942 16.7944C52.0934 16.4324 52.5637 14.5577 52.5637 14.5577C52.8448 15.097 53.6667 15.572 54.5408 15.572C57.1428 15.572 58.9081 13.1872 58.9081 9.99519C58.9081 7.58144 56.8745 5.33356 53.7837 5.33356V5.3336Z" fill="#F6F6F5"/>
<circle cx="94.5" cy="12.5" r="12" stroke="#F6F6F5"/>
<path d="M94.6744 17.4558C93.0826 17.4056 91.5688 17.3666 90.0549 17.3081C89.7288 17.2941 89.397 17.2439 89.0792 17.1687C88.4826 17.0293 88.07 16.6696 87.8581 16.0814C87.688 15.6075 87.6267 15.1196 87.5821 14.6233C87.4845 13.458 87.4845 12.2927 87.5319 11.1274C87.5598 10.4694 87.5765 9.8059 87.7522 9.16748C87.8581 8.78554 87.9863 8.41197 88.2958 8.13597C88.622 7.84324 89.0039 7.6676 89.4388 7.64809C90.632 7.58954 91.8224 7.51706 93.0157 7.50591C94.6215 7.48918 96.2301 7.51148 97.8359 7.54215C98.5301 7.55609 99.2298 7.59233 99.9184 7.68154C100.548 7.76518 101.02 8.11645 101.271 8.72978C101.463 9.20093 101.535 9.69439 101.577 10.1962C101.686 11.4535 101.689 12.7109 101.627 13.9682C101.597 14.6066 101.566 15.2478 101.385 15.8695C101.179 16.5832 100.741 17.0544 100.01 17.2161C99.7261 17.2774 99.4305 17.2997 99.1406 17.3109C97.624 17.3638 96.1102 17.4112 94.6744 17.4558ZM93.1327 14.286C94.404 13.6281 95.6613 12.9757 96.9438 12.3094C95.6641 11.6403 94.4068 10.9852 93.1327 10.3189C93.1327 11.6487 93.1327 12.9562 93.1327 14.286Z" fill="#F6F6F5"/>
<circle cx="135.5" cy="12.5" r="12" stroke="#F6F6F5"/>
<path d="M133.597 8.07995C133.597 8.4356 133.597 10.0294 133.597 10.0294H132.168V12.4136H133.597V19.5002H136.531V12.4136H138.5C138.5 12.4136 138.685 11.2709 138.774 10.0196C138.517 10.0196 136.541 10.0196 136.541 10.0196C136.541 10.0196 136.541 8.63318 136.541 8.3895C136.541 8.14581 136.861 7.81651 137.177 7.81651C137.493 7.81651 138.158 7.81651 138.777 7.81651C138.777 7.4905 138.777 6.37087 138.777 5.33356C137.954 5.33356 137.015 5.33356 136.604 5.33356C133.525 5.33685 133.597 7.72431 133.597 8.07995Z" fill="#F6F6F5"/>
</svg>
