<svg width="40" height="220" viewBox="0 0 40 220" fill="none" xmlns="http://www.w3.org/2000/svg">
<circle cx="20" cy="20" r="19.5" stroke="#B8926B"/>
<path d="M8.8314 27.1047C11.3218 27.3287 13.5659 26.7016 15.6084 25.1697C13.4718 24.9816 12.043 23.9156 11.2457 21.9179C11.9444 22.003 12.5984 22.0254 13.2927 21.8372C10.9904 21.1206 9.76307 19.6156 9.59734 17.1879C10.2871 17.5104 10.9366 17.7433 11.7025 17.7522C10.3364 16.7265 9.63765 15.3962 9.66453 13.721C9.67797 12.9506 9.88401 12.2249 10.2916 11.5396C12.8223 14.5004 15.9981 16.1397 19.9084 16.413C19.886 16.2428 19.8726 16.1084 19.8546 15.9695C19.5321 13.4881 21.1446 11.2306 23.6082 10.7603C25.1535 10.4646 26.5196 10.8722 27.6753 11.9383C27.8544 12.0995 28.0067 12.1354 28.2307 12.0771C29.131 11.8487 29.9865 11.5172 30.8152 11.0693C30.4971 12.1174 29.8432 12.9058 28.9563 13.5687C29.1579 13.5329 29.3639 13.506 29.5655 13.4657C29.776 13.4209 29.9865 13.3716 30.197 13.3134C30.3986 13.2596 30.5957 13.1969 30.7928 13.1297C30.9943 13.0625 31.1959 12.9864 31.4333 12.9461C31.3168 13.1073 31.2048 13.2775 31.0794 13.4343C30.5598 14.0928 29.9596 14.6706 29.3012 15.1857C29.234 15.2394 29.1758 15.3559 29.1803 15.4365C29.2161 17.0266 28.9921 18.5764 28.477 20.0814C27.4647 23.0466 25.6999 25.4474 23.0528 27.163C21.7448 28.0095 20.316 28.5649 18.7886 28.8874C17.2746 29.2055 15.7517 29.2637 14.2243 29.0845C12.6924 28.9054 11.2367 28.453 9.86609 27.7453C9.50328 27.5616 9.1539 27.3556 8.80005 27.1585C8.81349 27.1406 8.82244 27.1226 8.8314 27.1047Z" fill="#B8926B"/>
<circle cx="20" cy="80" r="19.5" stroke="#D8BFA9"/>
<path d="M20.4555 68.5334C14.3025 68.5334 11.2 72.9683 11.2 76.6666C11.2 78.9058 12.0433 80.8981 13.852 81.6406C14.1485 81.7624 14.4143 81.6443 14.5003 81.3146C14.5601 81.0862 14.7018 80.5097 14.7649 80.2698C14.8516 79.9433 14.818 79.8287 14.5787 79.5441C14.0571 78.9256 13.7238 78.125 13.7238 76.9909C13.7238 73.7007 16.1725 70.7553 20.1001 70.7553C23.5779 70.7553 25.4886 72.8916 25.4886 75.7447C25.4886 79.4986 23.836 82.667 21.3828 82.667C20.0279 82.667 19.0138 81.5405 19.3388 80.1591C19.7282 78.5097 20.4822 76.7297 20.4822 75.5391C20.4822 74.4735 19.9132 73.5846 18.7355 73.5846C17.3505 73.5846 16.2379 75.025 16.2379 76.9545C16.2379 78.1834 16.651 79.0147 16.651 79.0147C16.651 79.0147 15.2337 85.0519 14.9852 86.1092C14.4904 88.2148 14.9108 90.7961 14.9465 91.0568C14.9673 91.2113 15.1648 91.248 15.2541 91.1312C15.3819 90.9635 17.0315 88.9163 17.5923 86.8707C17.751 86.2915 18.5034 83.292 18.5034 83.292C18.9532 84.1548 20.2683 84.9148 21.6667 84.9148C25.83 84.9148 28.6545 81.0992 28.6545 75.9919C28.6544 72.1299 25.4007 68.5333 20.4555 68.5333V68.5334Z" fill="#D8BFA9"/>
<circle cx="20" cy="140" r="19.5" stroke="#D8BFA9"/>
<path d="M20.2776 147.929C17.7306 147.849 15.3085 147.786 12.8864 147.693C12.3645 147.67 11.8337 147.59 11.3252 147.47C10.3706 147.247 9.71044 146.671 9.37143 145.73C9.09934 144.972 9.00121 144.191 8.92984 143.397C8.77372 141.533 8.77372 139.668 8.84955 137.803C8.89415 136.751 8.92091 135.689 9.20193 134.668C9.37143 134.057 9.57662 133.459 10.0717 133.017C10.5936 132.549 11.2047 132.268 11.9006 132.237C13.8097 132.143 15.7144 132.027 17.6235 132.009C20.1928 131.982 22.7666 132.018 25.3359 132.067C26.4466 132.089 27.5662 132.147 28.668 132.29C29.6761 132.424 30.4299 132.986 30.8314 133.967C31.1391 134.721 31.2551 135.511 31.322 136.314C31.496 138.325 31.5004 140.337 31.4023 142.349C31.3532 143.37 31.3042 144.396 31.0142 145.391C30.6842 146.533 29.9838 147.287 28.8152 147.545C28.3602 147.644 27.8874 147.679 27.4235 147.697C24.9969 147.782 22.5748 147.858 20.2776 147.929ZM17.8109 142.857C19.8449 141.805 21.8566 140.761 23.9085 139.695C21.8611 138.624 19.8494 137.576 17.8109 136.51C17.8109 138.638 17.8109 140.73 17.8109 142.857Z" fill="#D8BFA9"/>
<circle cx="20" cy="200" r="19.5" stroke="#D8BFA9"/>
<path d="M16.9534 192.928C16.9534 193.497 16.9534 196.047 16.9534 196.047H14.6667V199.861H16.9534V211.2H21.648V199.861H24.7988C24.7988 199.861 25.0938 198.033 25.2361 196.031C24.8251 196.031 21.6638 196.031 21.6638 196.031C21.6638 196.031 21.6638 193.813 21.6638 193.423C21.6638 193.033 22.1749 192.506 22.6807 192.506C23.1865 192.506 24.2508 192.506 25.2414 192.506C25.2414 191.984 25.2414 190.193 25.2414 188.533C23.9241 188.533 22.4225 188.533 21.7639 188.533C16.8375 188.539 16.9534 192.359 16.9534 192.928Z" fill="#D8BFA9"/>
</svg>
